<svg width="188" height="188" viewBox="0 0 188 188" fill="none" xmlns="http://www.w3.org/2000/svg">
<g clip-path="url(#clip0)">
<path d="M36.9041 76.876C36.2211 76.1931 35.2738 75.8039 34.3077 75.8039C33.3384 75.8039 32.3943 76.1931 31.7077 76.876C31.0247 77.5627 30.6355 78.5064 30.6355 79.4761C30.6355 80.4418 31.0247 81.3895 31.7077 82.0725C32.3943 82.7554 33.3384 83.1483 34.3077 83.1483C35.2734 83.1483 36.2211 82.7554 36.9041 82.0725C37.5871 81.3858 37.98 80.4422 37.98 79.4761C37.98 78.51 37.5875 77.5627 36.9041 76.876Z" fill="#793333"/>
<path d="M174.434 37.351C176.237 36.6633 177.795 36.0692 178.982 35.3161C180.317 34.4694 181.44 33.5844 182.415 32.6096C189.863 25.1615 189.862 13.04 182.412 5.58828C174.96 -1.86121 162.839 -1.86304 155.391 5.58534C154.418 6.55802 153.533 7.68051 152.683 9.01817C151.931 10.2049 151.337 11.7622 150.65 13.565C149.988 15.2996 148.461 19.3027 147.361 19.9838C147.268 19.9526 147.091 19.8785 146.823 19.704C141.618 16.3145 130.142 10.9136 121.239 12.6317L118.289 9.68094C115.7 7.09227 112.258 5.66685 108.597 5.66685C104.937 5.66685 101.495 7.09227 98.9063 9.68094C96.3176 12.2696 94.8919 15.7112 94.8919 19.3721C94.8919 21.2389 95.2646 23.0476 95.971 24.7165C88.9864 24.2876 81.8567 26.7302 76.5311 32.0555L40.2012 68.3853C38.7674 69.8192 38.7674 72.1446 40.2012 73.5788C41.6351 75.0126 43.9605 75.0126 45.3947 73.5788L66.0086 52.9649L79.0727 66.0287C79.7898 66.7458 80.7295 67.1042 81.6695 67.1042C82.6095 67.1042 83.5495 66.7454 84.2662 66.0287C85.7001 64.5948 85.7001 62.2694 84.2662 60.8356L71.2024 47.7718L81.7249 37.2493C85.1129 33.8613 89.6172 31.9956 94.4083 31.9956C99.1993 31.9956 103.704 33.8613 107.092 37.2493L150.75 80.9071C154.138 84.2951 156.003 88.7998 156.003 93.5908C156.003 98.3819 154.137 102.886 150.75 106.274L79.8064 177.219C75.2202 181.806 67.7575 181.806 63.1706 177.219L10.7811 124.83C6.19459 120.243 6.19459 112.781 10.7811 108.194L27.6772 91.2981C29.1111 89.8643 29.1111 87.5389 27.6772 86.1046C26.2434 84.6704 23.918 84.6708 22.4837 86.1046L5.58763 103.001C-1.86222 110.451 -1.86222 122.573 5.58763 130.023L57.9775 182.413C61.7026 186.138 66.5953 188 71.4885 188C76.3816 188 81.2747 186.138 84.9998 182.413L155.944 111.468C161.269 106.143 163.712 99.0131 163.283 92.0285C164.951 92.7349 166.761 93.1076 168.627 93.1076C172.288 93.1076 175.73 91.6822 178.319 89.0935C183.662 83.7502 183.662 75.0549 178.319 69.7116L175.368 66.7609C177.086 57.8584 171.685 46.3824 168.296 41.1771C168.121 40.9094 168.047 40.7328 168.016 40.6396C168.697 39.5387 172.699 38.0127 174.434 37.351ZM168.676 70.4555C168.677 70.4566 168.679 70.4577 168.68 70.4588L173.125 74.9043C175.605 77.385 175.605 81.4204 173.125 83.9004C171.924 85.1015 170.326 85.7631 168.627 85.7631C166.928 85.7631 165.331 85.1015 164.13 83.8997L104.1 23.8705C102.899 22.6694 102.237 21.0718 102.237 19.3728C102.237 17.6739 102.899 16.0762 104.101 14.8752C105.341 13.6352 106.97 13.0154 108.599 13.0154C110.227 13.0154 111.857 13.6352 113.096 14.8752L117.544 19.3229C117.544 19.3233 117.545 19.324 117.545 19.3244L168.676 70.4555ZM162.141 45.185C164.819 49.2978 167.114 54.6889 167.989 59.3819L128.618 20.0114C133.311 20.8856 138.702 23.1809 142.815 25.8596C145.647 27.7032 148.05 27.5013 149.567 27.0081C153.924 25.59 155.914 20.3738 157.512 16.1827C157.988 14.9317 158.529 13.5129 158.884 12.9529C159.44 12.0776 159.996 11.3667 160.583 10.7792C165.168 6.19487 172.63 6.19597 177.217 10.7821C181.804 15.3698 181.806 22.8317 177.221 27.4168C176.633 28.0047 175.923 28.5599 175.048 29.1139C174.486 29.4705 173.067 30.0113 171.816 30.4887C167.625 32.087 162.41 34.0765 160.992 38.4331C160.499 39.9504 160.297 42.3532 162.141 45.185Z" fill="#793333"/>
<path d="M137.306 101.825L121.994 86.5132C120.56 85.0794 118.234 85.0794 116.8 86.5132C115.366 87.9471 115.366 90.2725 116.8 91.7067L132.112 107.019C132.829 107.736 133.769 108.094 134.709 108.094C135.649 108.094 136.589 107.736 137.306 107.019C138.74 105.585 138.74 103.26 137.306 101.825Z" fill="#793333"/>
<path d="M119.842 119.289L104.53 103.977C103.097 102.543 100.771 102.543 99.3369 103.977C97.903 105.411 97.903 107.736 99.3369 109.171L114.649 124.483C115.366 125.2 116.306 125.558 117.246 125.558C118.186 125.558 119.126 125.2 119.842 124.483C121.276 123.049 121.276 120.723 119.842 119.289Z" fill="#793333"/>
<path d="M102.379 136.752L87.0669 121.44C85.633 120.006 83.3076 120.006 81.8737 121.44C80.4399 122.874 80.4399 125.199 81.8737 126.633L97.1858 141.945C97.9029 142.662 98.8426 143.021 99.7826 143.021C100.722 143.021 101.663 142.662 102.379 141.945C103.813 140.512 103.813 138.186 102.379 136.752Z" fill="#793333"/>
<path d="M84.9155 154.215L69.6035 138.903C68.1696 137.469 65.8442 137.469 64.4104 138.903C62.9765 140.337 62.9765 142.662 64.4104 144.097L79.7224 159.409C80.4395 160.126 81.3792 160.484 82.3192 160.484C83.2592 160.484 84.1992 160.126 84.9159 159.409C86.3498 157.975 86.3498 155.65 84.9155 154.215Z" fill="#793333"/>
<path d="M96.5965 73.1634C95.9135 72.4805 94.9662 72.0912 94.0001 72.0912C93.0344 72.0912 92.0867 72.4805 91.4037 73.1634C90.7171 73.8464 90.3279 74.7937 90.3279 75.7635C90.3279 76.7292 90.7171 77.6769 91.4037 78.3599C92.0867 79.0428 93.0341 79.4357 94.0001 79.4357C94.9658 79.4357 95.9139 79.0432 96.5965 78.3599C97.2795 77.6769 97.6724 76.7296 97.6724 75.7635C97.6724 74.7941 97.2795 73.8501 96.5965 73.1634Z" fill="#793333"/>
</g>
<defs>
<clipPath id="clip0">
<rect y="-1.52588e-05" width="188" height="188" fill="white"/>
</clipPath>
</defs>
</svg>
