<svg width="188" height="188" viewBox="0 0 188 188" fill="none" xmlns="http://www.w3.org/2000/svg">
<g clip-path="url(#clip0)">
<path d="M178.599 0C173.807 0.0140876 169.797 3.63796 169.299 8.4036C159.952 26.5143 138.555 31.3333 128.466 31.3333H112.063C110.59 31.3172 109.323 30.285 109.011 28.8455C108.005 24.6961 106.064 20.8314 103.336 17.5467C103.086 14.4729 101.817 6.6834 95.3995 3.47173C89.6749 0.6016 62.5089 0 40.7322 0C24.0409 0 9.39888 16.1053 9.39888 34.4667C9.39888 42.9016 12.6983 51.1517 15.888 59.1323C18.9963 66.8998 21.9322 74.2349 21.9322 81.4667C21.9322 95.1155 1.77861 106.847 1.56555 106.947C0.330818 107.653 -0.273171 109.103 0.0946324 110.477C0.462436 111.851 1.70973 112.805 3.13221 112.8C3.30551 112.801 3.47855 112.786 3.64921 112.756C14.7473 110.88 25.5693 107.632 35.8661 103.087C49.3865 96.3249 54.1303 79.3391 46.6699 64.4151C43.0352 57.152 40.1745 46.718 43.0289 39.2074C43.8504 37.0478 45.2274 35.1433 47.0208 33.6865C47.1806 45.2798 48.4527 49.7573 58.5421 53.1131C65.2537 55.3441 65.7989 61.5982 65.7989 68.9333V77.9542C65.8083 81.3807 64.4464 84.6685 62.0169 87.0847C58.4071 90.6726 56.3839 95.5563 56.3989 100.646V107.887C56.3738 107.921 56.3425 107.95 56.3205 107.984C47.4219 121.965 48.8005 128.47 50.4173 135.999C51.3195 139.693 51.7978 143.477 51.843 147.279C52.1138 152.373 51.0488 157.45 48.7535 162.006C47.0385 165.182 46.1425 168.736 46.1466 172.346C46.1466 182.962 50.7996 186.925 51.3291 187.342C51.8828 187.772 52.5646 188.003 53.2655 188H128.466C129.168 188 129.85 187.764 130.402 187.329C130.931 186.913 135.584 182.943 135.584 172.333C135.589 168.724 134.693 165.17 132.978 161.993C130.682 157.437 129.617 152.361 129.888 147.267C129.933 143.465 130.412 139.68 131.314 135.987C132.921 128.467 134.309 121.952 125.411 107.972C125.389 107.937 125.357 107.909 125.332 107.874V104.578C125.337 96.9051 120.763 89.9694 113.708 86.9531L111.223 85.8878C106.474 83.8561 103.395 79.1871 103.399 74.0219V62.6667C103.399 59.2057 106.205 56.4 109.666 56.4H128.466C138.555 56.4 159.952 61.2191 169.299 79.3297C169.815 84.2979 174.135 87.9893 179.123 87.7236C184.111 87.4578 188.014 83.3282 187.999 78.3333V9.4C187.999 4.20852 183.79 0 178.599 0V0ZM99.0498 22.2153C100.882 24.6037 102.196 27.3471 102.91 30.2711L102.932 30.3369C91.4828 32.8436 70.5427 37.2303 53.5914 39.7714C53.3296 36.7887 53.2208 33.7945 53.2655 30.8007L99.0498 22.2153ZM37.1727 36.9733C32.6733 48.8111 39.012 63.1116 41.0612 67.21C46.2281 77.55 44.6457 91.6813 33.0649 97.4717C27.7647 99.9716 22.2401 101.965 16.5648 103.425C22.4022 97.9135 28.1989 90.24 28.1989 81.4667C28.1989 73.0317 24.8995 64.7817 21.7097 56.8011C18.6015 49.0335 15.6655 41.6984 15.6655 34.4667C15.6655 21.1531 26.3847 6.26667 40.7322 6.26667C74.8855 6.26667 90.0133 7.77693 92.5983 9.08667C95.0186 10.7244 96.5769 13.3613 96.8439 16.2714L49.5525 25.1199C49.3533 25.1576 49.1582 25.2143 48.9697 25.2891C43.5249 27.2822 39.218 31.5479 37.1727 36.9733V36.9733ZM125.185 134.702C124.187 138.82 123.662 143.039 123.618 147.276C123.349 153.288 124.617 159.269 127.303 164.654C128.623 166.998 129.317 169.643 129.318 172.333C129.522 175.622 128.736 178.896 127.062 181.733H54.6818C53.0015 178.898 52.2122 175.623 52.4164 172.333C52.4148 169.64 53.1077 166.992 54.428 164.644C57.113 159.259 58.3801 153.278 58.1097 147.267C58.0661 143.029 57.5405 138.811 56.543 134.693C55.1236 128.044 54.1648 123.557 60.7009 112.8H121.027C127.563 123.557 126.604 128.044 125.185 134.693V134.702ZM97.1322 62.6667V74.0219C97.127 81.6949 101.701 88.6306 108.757 91.6469L111.242 92.7122C115.99 94.7439 119.069 99.4129 119.066 104.578V106.533H62.6655V100.646C62.6562 97.2193 64.018 93.9315 66.4475 91.5153C70.0573 87.9274 72.0805 83.0437 72.0655 77.9542V68.9333C72.0655 62.6667 72.0655 51.0075 60.5223 47.1598C59.2078 46.7689 57.9323 46.257 56.7122 45.6307C74.7696 42.8107 96.446 38.1891 106.752 35.9174C108.311 37.0144 110.171 37.6041 112.078 37.6063H119.066V50.1396H109.666C102.746 50.1396 97.1357 55.7471 97.1322 62.6667V62.6667ZM128.466 50.1333H125.332V37.6H128.466C138.179 37.6 157.129 33.5768 169.199 19.6147V68.1187C157.129 54.1565 138.179 50.1333 128.466 50.1333V50.1333ZM181.732 78.3333C181.732 80.0638 180.329 81.4667 178.599 81.4667C176.868 81.4667 175.466 80.0638 175.466 78.3333V9.4C175.466 7.66951 176.868 6.26667 178.599 6.26667C180.329 6.26667 181.732 7.66951 181.732 9.4V78.3333Z" fill="#793333"/>
<path d="M62.6665 169.2C60.936 169.2 59.5332 170.603 59.5332 172.333C59.5332 174.064 60.936 175.467 62.6665 175.467H119.067C120.797 175.467 122.2 174.064 122.2 172.333C122.2 170.603 120.797 169.2 119.067 169.2H62.6665Z" fill="#793333"/>
</g>
<defs>
<clipPath id="clip0">
<rect width="188" height="188" fill="white"/>
</clipPath>
</defs>
</svg>
